<?xml version="1.0" encoding="UTF-8"?>
<svg width="32" height="32" viewBox="0 0 32 32" fill="none" xmlns="http://www.w3.org/2000/svg">
  <!-- Dark background with rounded corners -->
  <rect width="32" height="32" rx="6" fill="#0a0a0a"/>
  
  <!-- Abstract H shape formed by neural network connections -->
  <g id="neural-h">
    <!-- Left vertical line of H -->
    <circle cx="8" cy="8" r="2" fill="#64ffda" opacity="0.9"/>
    <circle cx="8" cy="16" r="2" fill="#64ffda"/>
    <circle cx="8" cy="24" r="2" fill="#64ffda" opacity="0.9"/>
    <path d="M8 8 L8 24" stroke="#64ffda" stroke-width="1.2" opacity="0.6"/>
    
    <!-- Right vertical line of H -->
    <circle cx="24" cy="8" r="2" fill="#64ffda" opacity="0.9"/>
    <circle cx="24" cy="16" r="2" fill="#64ffda"/>
    <circle cx="24" cy="24" r="2" fill="#64ffda" opacity="0.9"/>
    <path d="M24 8 L24 24" stroke="#64ffda" stroke-width="1.2" opacity="0.6"/>
    
    <!-- Horizontal connector of H -->
    <circle cx="16" cy="16" r="2.5" fill="#64ffda"/>
    <path d="M8 16 L24 16" stroke="#64ffda" stroke-width="1.5"/>
    
    <!-- Additional neural connections -->
    <circle cx="12" cy="12" r="1.5" fill="#e6e6fa" opacity="0.8"/>
    <circle cx="20" cy="12" r="1.5" fill="#e6e6fa" opacity="0.8"/>
    <circle cx="12" cy="20" r="1.5" fill="#e6e6fa" opacity="0.8"/>
    <circle cx="20" cy="20" r="1.5" fill="#e6e6fa" opacity="0.8"/>
    
    <!-- Neural network connections -->
    <path d="M8 8 L12 12" stroke="#e6e6fa" stroke-width="0.8" opacity="0.5"/>
    <path d="M12 12 L16 16" stroke="#e6e6fa" stroke-width="0.8" opacity="0.5"/>
    <path d="M16 16 L20 12" stroke="#e6e6fa" stroke-width="0.8" opacity="0.5"/>
    <path d="M20 12 L24 8" stroke="#e6e6fa" stroke-width="0.8" opacity="0.5"/>
    <path d="M8 24 L12 20" stroke="#e6e6fa" stroke-width="0.8" opacity="0.5"/>
    <path d="M12 20 L16 16" stroke="#e6e6fa" stroke-width="0.8" opacity="0.5"/>
    <path d="M16 16 L20 20" stroke="#e6e6fa" stroke-width="0.8" opacity="0.5"/>
    <path d="M20 20 L24 24" stroke="#e6e6fa" stroke-width="0.8" opacity="0.5"/>
  </g>
  
  <!-- Pulse animation for the center node -->
  <style>
    @keyframes pulse {
      0% { opacity: 0.8; r: 2.5; }
      50% { opacity: 1; r: 3; }
      100% { opacity: 0.8; r: 2.5; }
    }
    #neural-h circle:nth-child(7) {
      animation: pulse 2s infinite ease-in-out;
    }
  </style>
</svg> 